<svg width="184" height="156" viewBox="0 0 184 156" fill="none" xmlns="http://www.w3.org/2000/svg">
<path d="M183.583 104.392H158.943C158.183 86.8215 151.233 72.3915 137.083 61.8015C127.702 54.7194 116.215 50.9903 104.463 51.2115C78.3728 51.3515 51.9028 72.4515 51.2628 104.341H26.8828C27.5628 78.9515 37.3028 58.0115 57.5828 43.0415C84.7328 23.0415 114.153 20.8715 143.683 37.1315C169.593 51.4015 182.173 74.5215 183.583 104.392Z" fill="#23265F"/>
<path d="M105.252 131.191C123.122 127.571 132.652 117.531 131.812 103.331C131.042 90.0413 120.482 79.0313 107.632 78.1113C92.0619 77.0013 81.9719 85.9113 78.2019 104.301H54.3919C52.6619 89.8113 62.5019 70.7713 77.9119 61.3013C87.2772 55.4711 98.2661 52.7998 109.263 53.68C120.259 54.5602 130.683 58.9456 139.002 66.1913C147.129 73.2503 152.796 82.7151 155.18 93.2126C157.565 103.71 156.542 114.694 152.262 124.571C142.352 146.941 120.132 155.981 105.262 154.931L105.252 131.191Z" fill="#23265F"/>
<path d="M24.48 104.37H0C0.24 79.37 8 57.18 24.06 38.14C45.06 13.14 72.19 0.84 104.96 0V24.41C82.96 24.97 63.96 32.52 48.32 47.97C32.68 63.42 25.08 82.41 24.48 104.37Z" fill="#23265F"/>
<path d="M104.972 128.522C100.23 128.458 95.6127 126.997 91.6978 124.321C87.7829 121.644 84.745 117.872 82.9648 113.477C81.1847 109.081 80.7414 104.258 81.6907 99.6118C82.6399 94.9655 84.9394 90.7027 88.301 87.3576C91.6625 84.0126 95.9366 81.7342 100.588 80.8078C105.238 79.8815 110.059 80.3485 114.446 82.1503C118.833 83.9521 122.59 87.0085 125.247 90.9366C127.904 94.8646 129.342 99.4895 129.382 104.232C129.452 117.782 118.792 128.422 104.972 128.522Z" fill="#23265F"/>
</svg>
