<svg width="777" height="777" viewBox="0 0 777 777" fill="none" xmlns="http://www.w3.org/2000/svg">
<rect width="776.467" height="776.467" rx="50" fill="#2233B0"/>
<path d="M738.756 490.899H644.664C641.762 423.805 615.222 368.701 561.187 328.261C525.363 301.217 481.5 286.976 436.622 287.821C336.992 288.356 235.911 368.93 233.467 490.708H140.367C142.964 393.752 180.158 313.788 257.601 256.623C361.279 180.249 473.625 171.962 586.391 234.054C685.333 288.547 733.372 376.835 738.756 490.899Z" fill="white"/>
<path d="M439.635 593.24C507.875 579.416 544.267 541.076 541.059 486.851C538.119 436.1 497.794 394.056 448.723 390.543C389.266 386.305 350.736 420.329 336.339 490.555H245.416C238.81 435.222 276.386 362.514 335.232 326.351C370.995 304.087 412.958 293.886 454.951 297.248C496.943 300.609 536.75 317.355 568.516 345.024C599.551 371.981 621.191 408.124 630.296 448.21C639.401 488.297 635.498 530.242 619.152 567.96C581.308 653.384 496.457 687.905 439.673 683.895L439.635 593.24Z" fill="white"/>
<path d="M131.192 490.817H37.7102C38.6267 395.35 68.2597 310.613 129.588 237.905C209.781 142.438 313.382 95.468 438.52 92.2603V185.475C354.509 187.613 281.954 216.444 222.229 275.443C162.505 334.442 133.483 406.959 131.192 490.817Z" fill="white"/>
<path d="M438.567 583.045C420.459 582.804 402.826 577.223 387.876 567.003C372.926 556.783 361.325 542.378 354.527 525.593C347.73 508.808 346.037 490.39 349.662 472.647C353.287 454.904 362.068 438.626 374.904 425.852C387.741 413.078 404.063 404.378 421.823 400.84C439.584 397.303 457.993 399.086 474.744 405.967C491.496 412.847 505.843 424.519 515.99 439.519C526.136 454.519 531.63 472.18 531.781 490.289C532.049 542.032 491.342 582.663 438.567 583.045Z" fill="white"/>
</svg>
