<svg width="1210" height="499" viewBox="0 0 1210 499" fill="none" xmlns="http://www.w3.org/2000/svg">
<g clip-path="url(#clip0_176_33)">
<path d="M459.856 316.796H398.156C396.252 272.782 378.817 236.634 343.395 210.105C319.887 192.36 291.103 183.018 261.654 183.576C196.322 183.927 129.988 236.784 128.41 316.671H67.3359C69.0394 253.067 93.4388 200.611 144.242 163.11C212.254 113.008 285.954 107.572 359.928 148.305C424.835 184.052 456.324 241.969 459.856 316.796Z" fill="white"/>
<path d="M263.635 383.932C308.426 374.864 332.275 349.713 330.195 314.141C328.241 280.848 301.813 253.267 269.598 250.963C230.619 248.182 205.342 270.502 195.898 316.57H136.278C131.944 280.272 156.594 232.575 195.197 208.852C218.658 194.247 246.186 187.555 273.733 189.76C301.28 191.965 327.393 202.951 348.232 221.102C368.587 238.789 382.778 262.5 388.746 288.797C394.715 315.093 392.15 342.608 381.424 367.348C356.624 423.387 300.961 446.033 263.686 443.402L263.635 383.932Z" fill="white"/>
<path d="M61.3242 316.746H0C0.601217 254.119 20.0406 198.532 60.272 150.835C112.879 88.2081 180.841 57.3958 262.932 55.2915V116.44C207.821 117.843 160.224 136.756 121.045 175.46C81.8657 214.163 62.8272 261.735 61.3242 316.746Z" fill="white"/>
<path d="M262.932 377.243C251.061 377.07 239.505 373.4 229.71 366.691C219.915 359.982 212.317 350.533 207.866 339.526C203.415 328.52 202.31 316.445 204.688 304.814C207.066 293.182 212.823 282.511 221.236 274.135C229.65 265.759 240.348 260.051 251.99 257.725C263.632 255.399 275.702 256.559 286.688 261.059C297.674 265.56 307.089 273.201 313.753 283.026C320.418 292.851 324.037 304.423 324.156 316.295C324.281 350.339 297.477 376.993 262.932 377.243Z" fill="white"/>
<path d="M586.413 303.634C574.89 311.05 561.462 314.958 547.759 314.882C508.555 314.882 479.496 285.647 479.496 249.173V248.798C479.496 212.324 508.906 182.739 548.11 182.739C587.314 182.739 616.373 211.948 616.373 248.447V248.798C616.46 261.834 612.524 274.58 605.1 285.297L618.177 296.369L600.391 316.159L586.413 303.634ZM561.011 281.289L543.476 266.258L561.262 246.218L578.497 261.824C579.969 257.874 580.707 253.689 580.676 249.474V249.123C580.676 230.611 567.424 214.453 547.834 214.453C528.245 214.453 515.694 230.436 515.694 248.748V249.123C515.694 267.461 528.771 283.618 548.26 283.618C552.616 283.616 556.936 282.826 561.011 281.289Z" fill="white"/>
<path d="M633.031 256.614V185.269H668.804V255.887C668.804 274.224 678.072 282.942 692.226 282.942C706.38 282.942 715.623 274.575 715.623 256.789V185.269H751.396V255.762C751.396 296.77 727.974 314.756 691.85 314.756C655.727 314.756 633.031 296.369 633.031 256.614Z" fill="white"/>
<path d="M772.965 185.269H808.362V312.326H772.965V185.269Z" fill="white"/>
<path d="M831.582 185.269H864.449L916.704 252.43V185.269H951.55V312.326H920.713L866.428 242.635V312.326H831.582V185.269Z" fill="white"/>
<path d="M1005.08 216.132H966.957V185.269H1078.41V216.132H1040.31V312.326H1005.08V216.132Z" fill="white"/>
<path d="M1121.42 184.367H1155.36L1209.45 312.326H1171.7L1162.43 289.655H1113.43L1104.36 312.326H1067.34L1121.42 184.367ZM1152.28 262.25L1138.1 226.127L1123.78 262.25H1152.28Z" fill="white"/>
</g>
<defs>
<clipPath id="clip0_176_33">
<rect width="1209.45" height="498.898" fill="white"/>
</clipPath>
</defs>
</svg>
