<?xml version="1.0" encoding="UTF-8" standalone="no"?>
<!-- Created with Inkscape (http://www.inkscape.org/) -->

<svg
   width="320mm"
   height="132mm"
   viewBox="0 0 320 132"
   version="1.1"
   id="svg1"
   xml:space="preserve"
   inkscape:version="1.4.2 (f4327f4, 2025-05-13)"
   sodipodi:docname="QuintaBlogLogo.svg"
   inkscape:export-filename="QuintaBlogLogo.svg"
   inkscape:export-xdpi="79"
   inkscape:export-ydpi="79"
   xmlns:inkscape="http://www.inkscape.org/namespaces/inkscape"
   xmlns:sodipodi="http://sodipodi.sourceforge.net/DTD/sodipodi-0.dtd"
   xmlns="http://www.w3.org/2000/svg"
   xmlns:svg="http://www.w3.org/2000/svg"><sodipodi:namedview
     id="namedview1"
     pagecolor="#505050"
     bordercolor="#ffffff"
     borderopacity="1"
     inkscape:showpageshadow="0"
     inkscape:pageopacity="0"
     inkscape:pagecheckerboard="1"
     inkscape:deskcolor="#505050"
     inkscape:document-units="mm"
     inkscape:zoom="0.50835204"
     inkscape:cx="481.94948"
     inkscape:cy="270.48185"
     inkscape:window-width="1920"
     inkscape:window-height="1009"
     inkscape:window-x="1358"
     inkscape:window-y="-8"
     inkscape:window-maximized="1"
     inkscape:current-layer="g1" /><defs
     id="defs1"><style
       id="style1">.cls-1{fill:#1d1d1b;}</style></defs><g
     inkscape:label="Capa 1"
     inkscape:groupmode="layer"
     id="layer1"><g
       id="g1"
       transform="matrix(0.26458333,0,0,0.26458333,109.16708,55.693271)"><g
         id="g3"
         style="fill:#23265f;fill-opacity:1;stroke-width:0.39919"
         transform="matrix(2.5050722,0,0,2.5050722,-412.59999,-155.20293)"><path
           d="m 338.17,332.87 h -24.63 c -0.76,-17.57 -7.72,-32 -21.86,-42.59 a 52.51,52.51 0 0 0 -32.63,-10.59 c -26.08,0.14 -52.56,21.24 -53.19,53.13 h -24.38 c 0.68,-25.39 10.42,-46.33 30.7,-61.3 27.15,-20 56.57,-22.17 86.1,-5.91 25.91,14.27 38.48,37.39 39.89,67.26 z"
           transform="translate(-154.6,-228.48)"
           id="path1"
           style="fill:#23265f;fill-opacity:1;stroke-width:0.39919" /><path
           d="m 259.84,359.67 c 17.88,-3.62 27.4,-13.66 26.57,-27.86 -0.78,-13.29 -11.33,-24.3 -24.19,-25.22 -15.56,-1.11 -25.65,7.8 -29.42,26.19 H 209 c -1.73,-14.49 8.11,-33.53 23.52,-43 a 51.54,51.54 0 0 1 61.09,4.89 50.65,50.65 0 0 1 13.25,58.38 c -9.9,22.37 -32.12,31.41 -47,30.36 z"
           transform="translate(-154.6,-228.48)"
           id="path2"
           style="fill:#23265f;fill-opacity:1;stroke-width:0.39919" /><path
           d="M 179.08,332.85 H 154.6 c 0.24,-25 8,-47.19 24.06,-66.23 21,-25 48.13,-37.3 80.9,-38.14 v 24.41 c -22,0.56 -41,8.11 -56.64,23.56 -15.64,15.45 -23.24,34.44 -23.84,56.4 z"
           transform="translate(-154.6,-228.48)"
           id="path3"
           style="fill:#23265f;fill-opacity:1;stroke-width:0.39919" /><path
           d="M 259.56,357 A 24.09,24.09 0 1 1 284,332.67 c 0.05,13.59 -10.65,24.23 -24.44,24.33 z"
           transform="translate(-154.6,-228.48)"
           id="path4"
           style="fill:#23265f;fill-opacity:1;stroke-width:0.39919" /></g><g
         id="g2"
         transform="matrix(2.5050722,0,0,2.5050722,-412.60002,-103.83455)"
         style="fill:#23265f;fill-opacity:1;stroke-width:0.39919"><path
           class="cls-1"
           d="m 388.69,307.11 a 28.22,28.22 0 0 1 -15.43,4.49 c -15.65,0 -27.25,-11.67 -27.25,-26.23 v -0.15 c 0,-14.56 11.74,-26.37 27.39,-26.37 15.65,0 27.25,11.66 27.25,26.23 v 0.14 a 25.29,25.29 0 0 1 -4.5,14.57 l 5.22,4.42 -7.1,7.9 z m -10.14,-8.92 -7,-6 7.1,-8 6.88,6.23 a 13.82,13.82 0 0 0 0.87,-4.93 v -0.14 c 0,-7.39 -5.29,-13.84 -13.11,-13.84 -7.82,0 -12.83,6.38 -12.83,13.69 v 0.15 c 0,7.32 5.22,13.77 13,13.77 a 14.44,14.44 0 0 0 5.09,-0.93 z"
           transform="translate(-154.6,-228.48)"
           id="path5"
           style="fill:#23265f;fill-opacity:1;stroke-width:0.39919" /><path
           class="cls-1"
           d="m 407.3,288.34 v -28.48 h 14.28 v 28.19 c 0,7.32 3.7,10.8 9.35,10.8 5.65,0 9.34,-3.34 9.34,-10.44 v -28.55 h 14.28 V 288 c 0,16.37 -9.35,23.55 -23.77,23.55 -14.42,0 -23.48,-7.34 -23.48,-23.21 z"
           transform="translate(-154.6,-228.48)"
           id="path6"
           style="fill:#23265f;fill-opacity:1;stroke-width:0.39919" /><path
           class="cls-1"
           d="m 463.16,259.86 h 14.13 v 50.72 h -14.13 z"
           transform="translate(-154.6,-228.48)"
           id="path7"
           style="fill:#23265f;fill-opacity:1;stroke-width:0.39919" /><path
           class="cls-1"
           d="m 486.56,259.86 h 13.12 l 20.86,26.81 v -26.81 h 13.91 v 50.72 h -12.31 l -21.67,-27.82 v 27.82 h -13.91 z"
           transform="translate(-154.6,-228.48)"
           id="path8"
           style="fill:#23265f;fill-opacity:1;stroke-width:0.39919" /><path
           class="cls-1"
           d="M 555.82,272.18 H 540.6 v -12.32 h 44.49 v 12.32 h -15.21 v 38.4 h -14.06 z"
           transform="translate(-154.6,-228.48)"
           id="path9"
           style="fill:#23265f;fill-opacity:1;stroke-width:0.39919" /><path
           class="cls-1"
           d="m 602.26,259.5 h 13.55 l 21.59,51.08 h -15.07 l -3.7,-9.05 h -19.56 l -3.62,9.05 h -14.78 z m 12.32,31.09 -5.66,-14.42 -5.72,14.42 z"
           transform="translate(-154.6,-228.48)"
           id="path10"
           style="fill:#23265f;fill-opacity:1;stroke-width:0.39919" /></g><text
         xml:space="preserve"
         style="font-style:normal;font-variant:normal;font-weight:500;font-stretch:normal;font-size:120px;font-family:Rubik;-inkscape-font-specification:'Rubik Medium';text-align:center;letter-spacing:0px;writing-mode:lr-tb;direction:ltr;text-anchor:middle;fill:#5e7fa7;stroke-width:0;stroke-linecap:round;stroke-linejoin:round;stroke-miterlimit:6;fill-opacity:1"
         x="679.72852"
         y="206.71214"
         id="text1"><tspan
           sodipodi:role="line"
           id="tspan1"
           x="679.72852"
           y="206.71214"
           style="font-style:normal;font-variant:normal;font-weight:500;font-stretch:normal;font-size:120px;font-family:Rubik;-inkscape-font-specification:'Rubik Medium';fill:#5e7fa7;fill-opacity:1">blog</tspan></text></g></g></svg>
